<?xml version="1.0" encoding="UTF-8" standalone="no"?>
<svg
   xmlns:dc="http://purl.org/dc/elements/1.1/"
   xmlns:cc="http://creativecommons.org/ns#"
   xmlns:rdf="http://www.w3.org/1999/02/22-rdf-syntax-ns#"
   xmlns:svg="http://www.w3.org/2000/svg"
   xmlns="http://www.w3.org/2000/svg"
   xmlns:sodipodi="http://sodipodi.sourceforge.net/DTD/sodipodi-0.dtd"
   xmlns:inkscape="http://www.inkscape.org/namespaces/inkscape"
   viewBox="0 0 16 16"
   focusable="false"
   class=""
   role="presentation"
   id="FxSymbol0-169"
   version="1.1"
   sodipodi:docname="search.svg"
   inkscape:version="0.92.1 r15371">
  <metadata
     id="metadata21">
    <rdf:RDF>
      <cc:Work
         rdf:about="">
        <dc:format>image/svg+xml</dc:format>
        <dc:type
           rdf:resource="http://purl.org/dc/dcmitype/StillImage" />
        <dc:title></dc:title>
      </cc:Work>
    </rdf:RDF>
  </metadata>
  <defs
     id="defs19" />
  <sodipodi:namedview
     pagecolor="#ffffff"
     bordercolor="#666666"
     borderopacity="1"
     objecttolerance="10"
     gridtolerance="10"
     guidetolerance="10"
     inkscape:pageopacity="0"
     inkscape:pageshadow="2"
     inkscape:window-width="1293"
     inkscape:window-height="812"
     id="namedview17"
     showgrid="false"
     inkscape:zoom="14.75"
     inkscape:cx="8"
     inkscape:cy="8"
     inkscape:window-x="958"
     inkscape:window-y="342"
     inkscape:window-maximized="0"
     inkscape:current-layer="FxSymbol0-169" />
  <style
     type="text/css"
     id="style2"><![CDATA[
.msportalfx-svg-c01{fill:#fff}
.msportalfx-svg-c02{fill:#e5e5e5}
.msportalfx-svg-c03{fill:#a0a1a2}
.msportalfx-svg-c04{fill:#7a7a7a}
.msportalfx-svg-c05{fill:#3e3e3e}
.msportalfx-svg-c06{fill:#1e1e1e}
.msportalfx-svg-c07{fill:#0f0f0f}
.msportalfx-svg-c08{fill:#ba141a}
.msportalfx-svg-c09{fill:#dd5900}
.msportalfx-svg-c10{fill:#ff8c00}
.msportalfx-svg-c11{fill:#fcd116}
.msportalfx-svg-c12{fill:#fee087}
.msportalfx-svg-c13{fill:#b8d432}
.msportalfx-svg-c14{fill:#7fba00}
.msportalfx-svg-c15{fill:#59b4d9}
.msportalfx-svg-c16{fill:#3999c6}
.msportalfx-svg-c17{fill:#804998}
.msportalfx-svg-c18{fill:#ec008c}
.msportalfx-svg-c19{fill:#0072c6}
.msportalfx-svg-c20{fill:#68217a}
.msportalfx-svg-c21{fill:#00188f}
.msportalfx-svg-c22{fill:#e81123}
.msportalfx-svg-c97{fill:#ffb900}
.msportalfx-svg-c98{fill:#00a4ef}
.msportalfx-svg-c99{fill:#f25022}
.fxs-blade-header-icon .msportalfx-svg-c05,.fxs-sidebar-middle .msportalfx-svg-c05,.fxs-theme-dark .msportalfx-svg-c05,.msportalfx-inverted-theme .msportalfx-svg-c05{fill:#777}
.fxs-blade-header-icon .msportalfx-svg-c07,.fxs-sidebar-middle .msportalfx-svg-c07,.fxs-theme-dark .msportalfx-svg-c07,.msportalfx-inverted-theme .msportalfx-svg-c07{fill:#f2f2f2}
.msportalfx-svg-palette-white>*,.msportalfx-svg-palette-white>g>*{fill:#fff}
.msportalfx-svg-palette-blue>*,.msportalfx-svg-palette-blue>g>*{fill:#3999c6}
.msportalfx-svg-palette-black>*,.msportalfx-svg-palette-black>g>*{fill:#1e1e1e}
.msportalfx-svg-palette-green>*,.msportalfx-svg-palette-green>g>*{fill:#7fba00}
.msportalfx-svg-palette-gray>*,.msportalfx-svg-palette-gray>g>*{fill:#a0a1a2}
.msportalfx-svg-palette-inherit>*,.msportalfx-svg-palette-inherit>g *{fill:inherit!important}
.msportalfx-svg-badge{position:absolute;left:0;bottom:0;min-height:12px;min-width:12px}
.ext-fxc-menu-icon>.msportalfx-svg-badge{left:8px;bottom:7px;min-height:8px;min-width:8px}
.msportalfx-svg-disabled{filter:grayscale(100%)}
.msportalfx-svg-loading-square{-webkit-animation:ProgressFlagAnimation 1.45s infinite ease-in-out;animation:ProgressFlagAnimation 1.45s infinite ease-in-out}
.msportalfx-svg-loading-square:nth-child(1){-webkit-animation-delay:0s;animation-delay:0s}
.msportalfx-svg-loading-square:nth-child(2){-webkit-animation-delay:.2s;animation-delay:.2s}
.msportalfx-svg-loading-square:nth-child(3){-webkit-animation-delay:.4s;animation-delay:.4s}
]]></style>
  <g
     id="g14">
    <title
       id="title4" />
    <path
       d="M6.44 1.82V.1h-.03 9.5v10.76h-1.72v-.44h1.29v-10H6.86V.34v1.48h-.42z"
       id="path6"
       fill="#2bace2" />
    <path
       class="msportalfx-svg-c04"
       d="M1.17 15.8a1.22 1.22 0 0 1-.86-.32 1.31 1.31 0 0 1 0-1.72L3.11 11a3.89 3.89 0 0 1-.32-2.9 4 4 0 0 1 4-3.12 3 3 0 0 1 1 .11 3.58 3.58 0 0 1 2.47 1.83 4 4 0 0 1 .38 3.08 4 4 0 0 1-4 3.12 3 3 0 0 1-1-.11 3.82 3.82 0 0 1-1-.43l-2.8 2.8a1.09 1.09 0 0 1-.75.43m5.57-9.26a2.52 2.52 0 0 0-2.48 1.94 2.78 2.78 0 0 0 .32 2l.65.65 1 .32h.54a2.52 2.52 0 0 0 2.44-1.9 2.64 2.64 0 0 0-1.83-3h-.64"
       id="path8" />
    <path
       d="M8.92 9a2.15 2.15 0 1 1-2.15-2.12A2.16 2.16 0 0 1 8.92 9"
       id="path10"
       fill="#00aeef" />
    <path
       d="M6.66 4.51a3 3 0 0 1 1 .11 1.31 1.31 0 0 1 1-.32v.65h-.17a4.77 4.77 0 0 1 2.8 4.3h.11a1.11 1.11 0 0 0 .11-.43V8c0-.54.22-.86.54-1-.32-.11-.54-.32-.54-1v-.63a.51.51 0 0 0-.51-.54v-.64h.22a1.55 1.55 0 0 1 .75.22c.22.22.22.54.22 1v.75a.51.51 0 0 0 .54.54v.65a.51.51 0 0 0-.54.54v.65c0 .43 0 .65-.22.86a.91.91 0 0 1-.75.22 5.15 5.15 0 0 1-.75 2.15h3.76V1.82H5.47v2.8a4.41 4.41 0 0 1 1.19-.11z"
       id="path12"
       fill="#2bace2" />
  </g>
</svg>
