<?xml version="1.0" encoding="UTF-8" standalone="no"?>
<!-- Generator: Adobe Illustrator 18.1.0, SVG Export Plug-In . SVG Version: 6.00 Build 0)  -->

<svg
   xmlns:dc="http://purl.org/dc/elements/1.1/"
   xmlns:cc="http://creativecommons.org/ns#"
   xmlns:rdf="http://www.w3.org/1999/02/22-rdf-syntax-ns#"
   xmlns:svg="http://www.w3.org/2000/svg"
   xmlns="http://www.w3.org/2000/svg"
   xmlns:sodipodi="http://sodipodi.sourceforge.net/DTD/sodipodi-0.dtd"
   xmlns:inkscape="http://www.inkscape.org/namespaces/inkscape"
   version="1.1"
   id="Layer_1"
   x="0px"
   y="0px"
   viewBox="0 0 216 216"
   enable-background="new 0 0 216 216"
   xml:space="preserve"
   sodipodi:docname="Video.svg"
   inkscape:version="0.92.1 r15371"><metadata
     id="metadata9"><rdf:RDF><cc:Work
         rdf:about=""><dc:format>image/svg+xml</dc:format><dc:type
           rdf:resource="http://purl.org/dc/dcmitype/StillImage" /><dc:title></dc:title></cc:Work></rdf:RDF></metadata><defs
     id="defs7" /><sodipodi:namedview
     pagecolor="#ffffff"
     bordercolor="#666666"
     borderopacity="1"
     objecttolerance="10"
     gridtolerance="10"
     guidetolerance="10"
     inkscape:pageopacity="0"
     inkscape:pageshadow="2"
     inkscape:window-width="1736"
     inkscape:window-height="1056"
     id="namedview5"
     showgrid="false"
     inkscape:zoom="3.0903185"
     inkscape:cx="103.3252"
     inkscape:cy="102.52099"
     inkscape:window-x="226"
     inkscape:window-y="56"
     inkscape:window-maximized="0"
     inkscape:current-layer="Layer_1" /><path
     d="m 188.99969,15.909928 v 8.562129 H 171.87543 V 15.909928 H 43.443498 v 8.562129 H 26.319239 V 15.909928 H 17.75711 V 199.9957 h 8.562129 v -8.56213 h 17.124259 v 8.56213 H 171.87543 v -8.56213 h 17.12426 v 8.56213 h 8.56213 V 15.909928 Z M 43.443498,178.59038 H 26.319239 v -12.8432 h 17.124259 z m 0,-25.68639 H 26.319239 V 140.0608 h 17.124259 z m 0,-25.68639 H 26.319239 v -12.84319 h 17.124259 z m 0,-25.68639 H 26.319239 V 88.688027 h 17.124259 z m 0,-25.686377 H 26.319239 V 63.001639 h 17.124259 z m 0,-25.686388 H 26.319239 V 37.315251 H 43.443498 Z M 163.3133,187.15251 H 52.005627 v -72.7781 H 163.3133 Z m 0,-85.6213 H 52.005627 V 28.753122 H 163.3133 Z m 25.68639,77.05917 h -17.12426 v -12.8432 h 17.12426 z m 0,-25.68639 H 171.87543 V 140.0608 h 17.12426 z m 0,-25.68639 h -17.12426 v -12.84319 h 17.12426 z m 0,-25.68639 H 171.87543 V 88.688027 h 17.12426 z m 0,-25.686377 H 171.87543 V 63.001639 h 17.12426 z m 0,-25.686388 H 171.87543 V 37.315251 h 17.12426 z"
     id="path2"
     inkscape:connector-curvature="0"
     style="fill:#0078d7;stroke-width:4.28106451;fill-opacity:1" /><style
     id="style4486"
     type="text/css"><![CDATA[
.msportalfx-svg-c01{fill:#fff}
.msportalfx-svg-c02{fill:#e5e5e5}
.msportalfx-svg-c03{fill:#a0a1a2}
.msportalfx-svg-c04{fill:#7a7a7a}
.msportalfx-svg-c05{fill:#3e3e3e}
.msportalfx-svg-c06{fill:#1e1e1e}
.msportalfx-svg-c07{fill:#0f0f0f}
.msportalfx-svg-c08{fill:#ba141a}
.msportalfx-svg-c09{fill:#dd5900}
.msportalfx-svg-c10{fill:#ff8c00}
.msportalfx-svg-c11{fill:#fcd116}
.msportalfx-svg-c12{fill:#fee087}
.msportalfx-svg-c13{fill:#b8d432}
.msportalfx-svg-c14{fill:#7fba00}
.msportalfx-svg-c15{fill:#59b4d9}
.msportalfx-svg-c16{fill:#3999c6}
.msportalfx-svg-c17{fill:#804998}
.msportalfx-svg-c18{fill:#ec008c}
.msportalfx-svg-c19{fill:#0072c6}
.msportalfx-svg-c20{fill:#68217a}
.msportalfx-svg-c21{fill:#00188f}
.msportalfx-svg-c22{fill:#e81123}
.msportalfx-svg-c97{fill:#ffb900}
.msportalfx-svg-c98{fill:#00a4ef}
.msportalfx-svg-c99{fill:#f25022}
.fxs-blade-header-icon .msportalfx-svg-c05,.fxs-sidebar-middle .msportalfx-svg-c05,.fxs-theme-dark .msportalfx-svg-c05,.msportalfx-inverted-theme .msportalfx-svg-c05{fill:#777}
.fxs-blade-header-icon .msportalfx-svg-c07,.fxs-sidebar-middle .msportalfx-svg-c07,.fxs-theme-dark .msportalfx-svg-c07,.msportalfx-inverted-theme .msportalfx-svg-c07{fill:#f2f2f2}
.msportalfx-svg-palette-white>*,.msportalfx-svg-palette-white>g>*{fill:#fff}
.msportalfx-svg-palette-blue>*,.msportalfx-svg-palette-blue>g>*{fill:#3999c6}
.msportalfx-svg-palette-black>*,.msportalfx-svg-palette-black>g>*{fill:#1e1e1e}
.msportalfx-svg-palette-green>*,.msportalfx-svg-palette-green>g>*{fill:#7fba00}
.msportalfx-svg-palette-gray>*,.msportalfx-svg-palette-gray>g>*{fill:#a0a1a2}
.msportalfx-svg-palette-inherit>*,.msportalfx-svg-palette-inherit>g *{fill:inherit!important}
.msportalfx-svg-badge{position:absolute;left:0;bottom:0;min-height:12px;min-width:12px}
.ext-fxc-menu-icon>.msportalfx-svg-badge{left:8px;bottom:7px;min-height:8px;min-width:8px}
.msportalfx-svg-disabled{filter:grayscale(100%)}
.msportalfx-svg-loading-square{-webkit-animation:ProgressFlagAnimation 1.45s infinite ease-in-out;animation:ProgressFlagAnimation 1.45s infinite ease-in-out}
.msportalfx-svg-loading-square:nth-child(1){-webkit-animation-delay:0s;animation-delay:0s}
.msportalfx-svg-loading-square:nth-child(2){-webkit-animation-delay:.2s;animation-delay:.2s}
.msportalfx-svg-loading-square:nth-child(3){-webkit-animation-delay:.4s;animation-delay:.4s}
]]></style><g
     id="g4510"
     transform="matrix(1.4291101,0,0,1.4291101,73.049074,29.316933)"><title
       id="title4488" /><path
       id="path4490"
       d="M 31,38 H 19 c 1.634,5.768 -0.386,7 -10,7 v 3 H 41 V 45 C 31.386,45 29.364,43.771 31,38 Z"
       class="msportalfx-svg-c04"
       inkscape:connector-curvature="0"
       style="fill:#7a7a7a" /><path
       id="path4492"
       d="M 46.979,2 H 2.717 C 1.213,2 0,3.325 0,4.805 v 30.412 c 0,1.471 1.213,2.782 2.717,2.782 H 46.979 C 48.48,37.999 50,36.689 50,35.217 V 4.805 C 50,3.321 48.48,2 46.979,2"
       class="msportalfx-svg-c03"
       inkscape:connector-curvature="0"
       style="fill:#a0a1a2" /><path
       id="path4494"
       d="M 47.01,2.003 46.979,2.001 H 2.716 c -1.504,0 -2.717,1.324 -2.717,2.805 V 35.217 C -0.001,36.69 1.212,38 2.716,38 h 1.053 z"
       class="msportalfx-svg-c01"
       inkscape:connector-curvature="0"
       style="opacity:0.2;fill:#ffffff" /><path
       id="path4496"
       d="M 46,6 V 34 H 4 V 6 Z"
       class="msportalfx-svg-c15"
       inkscape:connector-curvature="0"
       style="fill:#59b4d9" /><path
       id="path4498"
       d="M 9,44.979 41,45 v 3 H 9 Z"
       class="msportalfx-svg-c03"
       inkscape:connector-curvature="0"
       style="fill:#a0a1a2" /><path
       id="path4500"
       d="m 25.517,4.095 a 0.71,0.71 0 1 1 -1.42,0 0.71,0.71 0 0 1 1.42,0"
       class="msportalfx-svg-c13"
       inkscape:connector-curvature="0"
       style="fill:#b8d432" /><path
       id="path4502"
       d="m 25.027,18.802 a 0.271,0.271 0 0 1 -0.13,-0.036 l -8.56,-4.858 a 0.257,0.257 0 0 1 -0.128,-0.221 c 0,-0.091 0.05,-0.175 0.128,-0.22 l 8.508,-4.826 a 0.265,0.265 0 0 1 0.256,0 l 8.563,4.859 a 0.25,0.25 0 0 1 0.127,0.22 0.251,0.251 0 0 1 -0.127,0.22 l -8.505,4.825 a 0.274,0.274 0 0 1 -0.132,0.037"
       class="msportalfx-svg-c01"
       inkscape:connector-curvature="0"
       style="fill:#ffffff" /><path
       id="path4504"
       d="m 23.797,30.608 a 0.245,0.245 0 0 1 -0.13,-0.034 L 15.133,25.732 A 0.25,0.25 0 0 1 15,25.511 v -9.717 c 0,-0.092 0.05,-0.175 0.132,-0.221 a 0.26,0.26 0 0 1 0.261,0 l 8.533,4.84 a 0.265,0.265 0 0 1 0.126,0.223 v 9.717 a 0.26,0.26 0 0 1 -0.126,0.221 0.274,0.274 0 0 1 -0.129,0.034"
       class="msportalfx-svg-c01"
       inkscape:connector-curvature="0"
       style="opacity:0.7;fill:#ffffff" /><path
       id="path4506"
       d="m 26.213,30.608 a 0.28,0.28 0 0 1 -0.134,-0.034 0.257,0.257 0 0 1 -0.125,-0.221 v -9.656 c 0,-0.09 0.05,-0.174 0.125,-0.221 l 8.533,-4.84 a 0.257,0.257 0 0 1 0.257,0 0.252,0.252 0 0 1 0.131,0.22 v 9.655 a 0.25,0.25 0 0 1 -0.131,0.221 l -8.53,4.842 a 0.236,0.236 0 0 1 -0.126,0.034"
       class="msportalfx-svg-c01"
       inkscape:connector-curvature="0"
       style="opacity:0.4;fill:#ffffff" /><path
       id="path4508"
       d="M 15,8 H 6 v 9 h 3 v -6 h 6 z M 6,23 v 9 h 9 V 29 H 9 v -6 z m 29,9 h 9 v -9 h -3 v 6 H 35 Z M 44,17 V 8 h -9 v 3 h 6 v 6 z"
       class="msportalfx-svg-c01"
       inkscape:connector-curvature="0"
       style="fill:#ffffff" /></g><style
     id="style4532"
     type="text/css"><![CDATA[
.msportalfx-svg-c01{fill:#fff}
.msportalfx-svg-c02{fill:#e5e5e5}
.msportalfx-svg-c03{fill:#a0a1a2}
.msportalfx-svg-c04{fill:#7a7a7a}
.msportalfx-svg-c05{fill:#3e3e3e}
.msportalfx-svg-c06{fill:#1e1e1e}
.msportalfx-svg-c07{fill:#0f0f0f}
.msportalfx-svg-c08{fill:#ba141a}
.msportalfx-svg-c09{fill:#dd5900}
.msportalfx-svg-c10{fill:#ff8c00}
.msportalfx-svg-c11{fill:#fcd116}
.msportalfx-svg-c12{fill:#fee087}
.msportalfx-svg-c13{fill:#b8d432}
.msportalfx-svg-c14{fill:#7fba00}
.msportalfx-svg-c15{fill:#59b4d9}
.msportalfx-svg-c16{fill:#3999c6}
.msportalfx-svg-c17{fill:#804998}
.msportalfx-svg-c18{fill:#ec008c}
.msportalfx-svg-c19{fill:#0072c6}
.msportalfx-svg-c20{fill:#68217a}
.msportalfx-svg-c21{fill:#00188f}
.msportalfx-svg-c22{fill:#e81123}
.msportalfx-svg-c97{fill:#ffb900}
.msportalfx-svg-c98{fill:#00a4ef}
.msportalfx-svg-c99{fill:#f25022}
.fxs-blade-header-icon .msportalfx-svg-c05,.fxs-sidebar-middle .msportalfx-svg-c05,.fxs-theme-dark .msportalfx-svg-c05,.msportalfx-inverted-theme .msportalfx-svg-c05{fill:#777}
.fxs-blade-header-icon .msportalfx-svg-c07,.fxs-sidebar-middle .msportalfx-svg-c07,.fxs-theme-dark .msportalfx-svg-c07,.msportalfx-inverted-theme .msportalfx-svg-c07{fill:#f2f2f2}
.msportalfx-svg-palette-white>*,.msportalfx-svg-palette-white>g>*{fill:#fff}
.msportalfx-svg-palette-blue>*,.msportalfx-svg-palette-blue>g>*{fill:#3999c6}
.msportalfx-svg-palette-black>*,.msportalfx-svg-palette-black>g>*{fill:#1e1e1e}
.msportalfx-svg-palette-green>*,.msportalfx-svg-palette-green>g>*{fill:#7fba00}
.msportalfx-svg-palette-gray>*,.msportalfx-svg-palette-gray>g>*{fill:#a0a1a2}
.msportalfx-svg-palette-inherit>*,.msportalfx-svg-palette-inherit>g *{fill:inherit!important}
.msportalfx-svg-badge{position:absolute;left:0;bottom:0;min-height:12px;min-width:12px}
.ext-fxc-menu-icon>.msportalfx-svg-badge{left:8px;bottom:7px;min-height:8px;min-width:8px}
.msportalfx-svg-disabled{filter:grayscale(100%)}
.msportalfx-svg-loading-square{-webkit-animation:ProgressFlagAnimation 1.45s infinite ease-in-out;animation:ProgressFlagAnimation 1.45s infinite ease-in-out}
.msportalfx-svg-loading-square:nth-child(1){-webkit-animation-delay:0s;animation-delay:0s}
.msportalfx-svg-loading-square:nth-child(2){-webkit-animation-delay:.2s;animation-delay:.2s}
.msportalfx-svg-loading-square:nth-child(3){-webkit-animation-delay:.4s;animation-delay:.4s}
]]></style><style
     id="style4563"
     type="text/css"><![CDATA[
.msportalfx-svg-c01{fill:#fff}
.msportalfx-svg-c02{fill:#e5e5e5}
.msportalfx-svg-c03{fill:#a0a1a2}
.msportalfx-svg-c04{fill:#7a7a7a}
.msportalfx-svg-c05{fill:#3e3e3e}
.msportalfx-svg-c06{fill:#1e1e1e}
.msportalfx-svg-c07{fill:#0f0f0f}
.msportalfx-svg-c08{fill:#ba141a}
.msportalfx-svg-c09{fill:#dd5900}
.msportalfx-svg-c10{fill:#ff8c00}
.msportalfx-svg-c11{fill:#fcd116}
.msportalfx-svg-c12{fill:#fee087}
.msportalfx-svg-c13{fill:#b8d432}
.msportalfx-svg-c14{fill:#7fba00}
.msportalfx-svg-c15{fill:#59b4d9}
.msportalfx-svg-c16{fill:#3999c6}
.msportalfx-svg-c17{fill:#804998}
.msportalfx-svg-c18{fill:#ec008c}
.msportalfx-svg-c19{fill:#0072c6}
.msportalfx-svg-c20{fill:#68217a}
.msportalfx-svg-c21{fill:#00188f}
.msportalfx-svg-c22{fill:#e81123}
.msportalfx-svg-c97{fill:#ffb900}
.msportalfx-svg-c98{fill:#00a4ef}
.msportalfx-svg-c99{fill:#f25022}
.fxs-blade-header-icon .msportalfx-svg-c05,.fxs-sidebar-middle .msportalfx-svg-c05,.fxs-theme-dark .msportalfx-svg-c05,.msportalfx-inverted-theme .msportalfx-svg-c05{fill:#777}
.fxs-blade-header-icon .msportalfx-svg-c07,.fxs-sidebar-middle .msportalfx-svg-c07,.fxs-theme-dark .msportalfx-svg-c07,.msportalfx-inverted-theme .msportalfx-svg-c07{fill:#f2f2f2}
.msportalfx-svg-palette-white>*,.msportalfx-svg-palette-white>g>*{fill:#fff}
.msportalfx-svg-palette-blue>*,.msportalfx-svg-palette-blue>g>*{fill:#3999c6}
.msportalfx-svg-palette-black>*,.msportalfx-svg-palette-black>g>*{fill:#1e1e1e}
.msportalfx-svg-palette-green>*,.msportalfx-svg-palette-green>g>*{fill:#7fba00}
.msportalfx-svg-palette-gray>*,.msportalfx-svg-palette-gray>g>*{fill:#a0a1a2}
.msportalfx-svg-palette-inherit>*,.msportalfx-svg-palette-inherit>g *{fill:inherit!important}
.msportalfx-svg-badge{position:absolute;left:0;bottom:0;min-height:12px;min-width:12px}
.ext-fxc-menu-icon>.msportalfx-svg-badge{left:8px;bottom:7px;min-height:8px;min-width:8px}
.msportalfx-svg-disabled{filter:grayscale(100%)}
.msportalfx-svg-loading-square{-webkit-animation:ProgressFlagAnimation 1.45s infinite ease-in-out;animation:ProgressFlagAnimation 1.45s infinite ease-in-out}
.msportalfx-svg-loading-square:nth-child(1){-webkit-animation-delay:0s;animation-delay:0s}
.msportalfx-svg-loading-square:nth-child(2){-webkit-animation-delay:.2s;animation-delay:.2s}
.msportalfx-svg-loading-square:nth-child(3){-webkit-animation-delay:.4s;animation-delay:.4s}
]]></style><g
     id="g4577"
     transform="matrix(0.92474114,0,0,0.92474114,71.691046,117.56563)"><title
       id="title4565" /><g
       id="g4571"><path
         id="path4567"
         d="M 40.2,44.8 C 35.7,48.3 30.3,50 25,50 17.5,50 10,46.6 5.1,40.2 -3.3,29.2 -1.2,13.6 9.8,5.2 14.3,1.7 19.7,0 25,0 c 7.5,0 15,3.4 19.9,9.8 8.3,11 6.3,26.6 -4.7,35"
         class="msportalfx-svg-c15"
         inkscape:connector-curvature="0"
         style="fill:#59b4d9" /><path
         id="path4569"
         d="m 35.6,29.4 c 1.8,2.4 5.2,2.8 7.5,1 0.1,-0.1 0.2,-0.2 0.3,-0.3 2.4,1.7 4.1,2.8 5,3.5 0.3,-0.7 0.5,-1.4 0.7,-2.1 -1,-0.7 -2.3,-1.8 -4.3,-3.4 0.6,-1.7 0.4,-3.6 -0.7,-5.2 C 42.4,20.7 39.5,20.2 37.2,21.5 34.7,19.2 31.9,16.6 28.9,13.7 38.1,8.8 44.6,9.5 44.6,9.5 43.5,8.1 42.3,6.9 41,5.8 37.1,5.2 31.1,5.3 24.3,8.9 v 0 0 C 22,6.5 19.7,3.9 17.3,1.2 16.1,1.5 15,2 14,2.5 c 1.7,2.9 4.1,5.7 6.8,8.6 v 0 c 0,0 0,0 0,0 -2.2,1.5 -4.7,3.6 -6.9,6 -0.3,0.3 -0.6,0.6 -0.8,0.9 C 11.7,17.7 10.3,17.8 9,18.3 6.6,13.4 6.7,9.5 7.1,7.5 c -1,1 -1.9,2.1 -2.7,3.3 -0.6,2.4 -0.8,5.9 1,10.1 -2,2.6 -2.1,6.4 0,9.2 0.2,0.2 0.4,0.4 0.6,0.6 -0.9,3.1 -1.3,6.2 -1.5,8.8 0.2,0.2 0.2,0.5 0.5,0.8 1.2,1.5 2.7,2.8 4.2,4 -0.2,-2.8 0,-6.8 1.7,-11.4 1.2,0.1 2.4,-0.1 3.5,-0.6 0.6,0.6 1.3,1.1 2,1.7 2.5,1.9 4.9,3.5 7.3,4.6 -0.1,1.2 0.2,2.5 1,3.5 1.7,2.2 4.8,2.6 7,0.9 0.5,-0.3 0.8,-0.8 1.1,-1.2 3.9,0.9 7.3,1 9.8,1 0.4,0 2.2,-2.4 3.2,-3.9 -1.5,0.3 -6.1,0.9 -12.3,-0.8 -0.2,-0.7 -0.4,-1.4 -0.9,-2 C 31,34 28.1,33.6 26,35 c -2.2,-1.2 -4.4,-2.6 -6.8,-4.5 -0.5,-0.4 -0.9,-0.7 -1.4,-1.1 1.4,-2.2 1.6,-5.1 0.3,-7.6 0.3,-0.3 0.6,-0.6 0.9,-0.9 2.3,-2.2 4.5,-3.9 6.5,-5.3 -0.1,-0.1 -0.2,-0.2 -0.2,-0.2 0.1,0.1 0.2,0.2 0.2,0.2 0,0 0,0 0,0 3.1,2.9 6.4,5.6 9.6,8.1 -0.9,1.9 -0.8,4 0.5,5.7 z"
         class="msportalfx-svg-c01"
         inkscape:connector-curvature="0"
         style="fill:#ffffff" /></g><path
       id="path4573"
       d="M 67.5,65.8 C 63,69.3 57.7,71 52.4,71 44.9,71 37.4,67.6 32.5,61.2 24.1,50.2 26.2,34.6 37.2,26.2 41.7,22.7 47,21 52.3,21 c 7.5,0 15,3.4 19.9,9.8 8.4,11 6.3,26.7 -4.7,35"
       class="msportalfx-svg-c14"
       inkscape:connector-curvature="0"
       style="fill:#7fba00" /><path
       id="path4575"
       d="m 62.9,50.4 c 1.8,2.4 5.2,2.8 7.5,1 l 0.3,-0.3 c 2.4,1.7 4.1,2.8 5,3.5 0.3,-0.7 0.5,-1.4 0.7,-2.1 -1,-0.7 -2.3,-1.8 -4.3,-3.4 0.6,-1.7 0.4,-3.6 -0.7,-5.2 -1.7,-2.2 -4.6,-2.7 -6.9,-1.4 -2.5,-2.3 -5.3,-4.9 -8.3,-7.8 9.2,-4.9 15.7,-4.2 15.7,-4.2 -1.1,-1.4 -2.3,-2.6 -3.6,-3.7 -3.9,-0.6 -9.9,-0.5 -16.7,3.1 -2.3,-2.4 -4.6,-5 -7,-7.7 -1.1,0.4 -2.2,0.8 -3.3,1.3 1.7,2.9 4.1,5.7 6.8,8.6 -2.2,1.5 -4.7,3.6 -6.9,6 -0.3,0.3 -0.6,0.6 -0.8,0.9 -1.4,-0.3 -2.8,-0.2 -4.1,0.3 -2.3,-4.9 -2.1,-8.8 -1.7,-10.8 -1,1 -1.9,2.1 -2.7,3.3 -0.6,2.4 -0.8,5.9 1,10.1 -2,2.6 -2.1,6.4 0,9.2 l 0.6,0.6 c -0.9,3.1 -1.3,6.2 -1.5,8.8 0.2,0.3 0.2,0.6 0.5,0.9 1.2,1.5 2.7,2.8 4.2,4 -0.2,-2.8 0,-6.8 1.7,-11.4 1.2,0.1 2.4,-0.1 3.5,-0.6 0.6,0.6 1.3,1.1 2,1.7 2.5,1.9 4.9,3.5 7.3,4.6 -0.1,1.2 0.2,2.5 1,3.5 1.7,2.2 4.8,2.6 7,0.9 0.5,-0.3 0.8,-0.8 1.1,-1.2 3.9,0.9 7.3,1 9.8,1 0.4,0 2.2,-2.4 3.2,-3.9 -1.5,0.3 -6.1,0.9 -12.3,-0.8 -0.2,-0.7 -0.4,-1.4 -0.9,-2 -1.6,-2.1 -4.5,-2.5 -6.6,-1.1 -2.2,-1.2 -4.4,-2.6 -6.8,-4.5 -0.5,-0.4 -0.9,-0.7 -1.4,-1.1 1.4,-2.2 1.6,-5.1 0.3,-7.5 l 0.9,-0.9 C 48.8,39.9 51,38.2 53,36.8 l -0.2,-0.2 0.2,0.2 c 3.1,2.9 6.4,5.6 9.6,8.1 -1.1,1.7 -0.9,3.8 0.3,5.5 z"
       class="msportalfx-svg-c01"
       inkscape:connector-curvature="0"
       style="fill:#ffffff" /></g></svg>