<?xml version="1.0" encoding="UTF-8" standalone="no"?>
<svg
   xmlns:dc="http://purl.org/dc/elements/1.1/"
   xmlns:cc="http://creativecommons.org/ns#"
   xmlns:rdf="http://www.w3.org/1999/02/22-rdf-syntax-ns#"
   xmlns:svg="http://www.w3.org/2000/svg"
   xmlns="http://www.w3.org/2000/svg"
   id="svg61"
   height="86.75mm"
   width="90.82mm"
   version="1.0">
  <metadata
     id="metadata65">
    <rdf:RDF>
      <cc:Work
         rdf:about="">
        <dc:format>image/svg+xml</dc:format>
        <dc:type
           rdf:resource="http://purl.org/dc/dcmitype/StillImage" />
      </cc:Work>
    </rdf:RDF>
  </metadata>
  <defs
     id="defs3">
    <pattern
       y="0"
       x="0"
       height="6"
       width="6"
       patternUnits="userSpaceOnUse"
       id="EMFhbasepattern" />
  </defs>
  <path
     id="path5"
     d="  M 0.079951545,254.80557   L 0.079951545,326.92187   L 341.47305,326.92187   L 341.47305,254.80557   L 0.079951545,254.80557   z "
     style="fill:#407855;fill-rule:evenodd;fill-opacity:1;stroke:none;" />
  <path
     id="path7"
     d="  M 0.079951545,0.079951545   L 0.079951545,254.96548   L 341.47305,254.96548   L 341.47305,0.079951545   L 0.079951545,0.079951545   z "
     style="fill:#0078d7;fill-rule:evenodd;fill-opacity:1;stroke:none;" />
  <path
     id="path9"
     d="  M 80.251363,189.28528   L 101.35857,166.29921   L 146.45124,207.69412   L 125.34403,230.68019   z "
     style="fill:#40cdf5;fill-rule:evenodd;fill-opacity:1;stroke:none;" />
  <path
     id="path11"
     d="  M 238.18565,115.23016   C 237.73592,115.23016 237.73592,115.23016 237.73592,115.23016   C 237.73592,104.20684 228.84131,95.382193 217.71805,95.382193   C 207.48425,95.382193 199.02938,103.32738 197.69019,113.0315   C 195.0218,109.94337 191.02423,107.73471 186.57692,107.73471   C 179.01151,107.73471 172.77529,113.91096 172.77529,121.84615   C 172.77529,129.35161 179.01151,135.51787 186.57692,135.51787   C 238.18565,135.51787 238.18565,135.51787 238.18565,135.51787   C 243.96214,135.51787 248.40945,131.11054 248.40945,125.37402   C 248.40945,120.08722 243.96214,115.23016 238.18565,115.23016   z "
     style="fill:#f2f2f2;fill-rule:evenodd;fill-opacity:1;stroke:none;" />
  <path
     id="path13"
     d="  M 80.671108,95.382193   L 80.671108,189.40521   L 111.85221,189.40521   L 111.85221,95.382193   L 80.671108,95.382193   z "
     style="fill:#40cdf5;fill-rule:evenodd;fill-opacity:1;stroke:none;" />
  <path
     id="path15"
     d="  M 91.704422,81.630527   C 91.704422,78.812235 93.783162,76.513628 96.341611,76.513628   C 98.910055,76.513628 100.9788,78.812235 100.9788,81.630527   C 100.9788,84.458813 98.910055,86.747426 96.341611,86.747426   C 93.783162,86.747426 91.704422,84.458813 91.704422,81.630527   z "
     style="fill:#002050;fill-rule:evenodd;fill-opacity:1;stroke:none;" />
  <path
     id="path17"
     d="  M 96.851302,110.73289   C 90.954876,110.73289 86.747426,115.42005 86.747426,121.97608   C 86.747426,130.40097 86.747426,130.40097 86.747426,130.40097   C 106.0957,130.40097 106.0957,130.40097 106.0957,130.40097   C 106.0957,121.97608 106.0957,121.97608 106.0957,121.97608   C 106.0957,115.42005 101.89824,110.73289 96.851302,110.73289   z "
     style="fill:#002050;fill-rule:evenodd;fill-opacity:1;stroke:none;" />
  <path
     id="path19"
     d="  M 96.841308,66.27983   L 80.671108,92.344034   L 111.85221,92.344034   L 96.841308,66.27983   z "
     style="fill:#a6a6a6;fill-rule:evenodd;fill-opacity:1;stroke:none;" />
  <path
     id="path21"
     d="  M 91.064809,109.13386   L 91.064809,137.2768   L 91.704422,137.2768   L 91.704422,109.13386   L 91.064809,109.13386   z "
     style="fill:#40cdf5;fill-rule:evenodd;fill-opacity:1;stroke:none;" />
  <path
     id="path23"
     d="  M 100.9788,109.13386   L 100.9788,137.2768   L 102.57783,137.2768   L 102.57783,109.13386   L 100.9788,109.13386   z "
     style="fill:#40cdf5;fill-rule:evenodd;fill-opacity:1;stroke:none;" />
  <path
     id="path25"
     d="  M 83.229558,123.20533   L 83.229558,124.00485   L 108.65415,124.00485   L 108.65415,123.20533   L 83.229558,123.20533   z "
     style="fill:#40cdf5;fill-rule:evenodd;fill-opacity:1;stroke:none;" />
  <path
     id="path27"
     d="  M 122.40581,81.470624   L 122.40581,304.53543   L 195.32162,304.53543   L 195.32162,81.470624   L 122.40581,81.470624   z "
     style="fill:#40cdf5;fill-rule:evenodd;fill-opacity:1;stroke:none;" />
  <path
     id="path29"
     d="  M 148.47002,52.368262   C 148.47002,45.752271 153.34706,40.37553 159.34343,40.37553   C 165.34979,40.37553 170.21684,45.752271 170.21684,52.368262   C 170.21684,58.994246 165.34979,64.360993 159.34343,64.360993   C 153.34706,64.360993 148.47002,58.994246 148.47002,52.368262   z "
     style="fill:#002050;fill-rule:evenodd;fill-opacity:1;stroke:none;" />
  <path
     id="path31"
     d="  M 158.36402,120.48698   C 146.60115,120.48698 136.79709,131.46033 136.79709,146.81102   C 136.79709,166.53907 136.79709,166.53907 136.79709,166.53907   C 181.88976,166.53907 181.88976,166.53907 181.88976,166.53907   C 181.88976,146.81102 181.88976,146.81102 181.88976,146.81102   C 181.88976,131.46033 172.0957,120.48698 158.36402,120.48698   z "
     style="fill:#002050;fill-rule:evenodd;fill-opacity:1;stroke:none;" />
  <path
     id="path33"
     d="  M 143.51302,184.44821   L 143.51302,206.35494   L 153.42701,206.35494   L 153.42701,184.44821   L 143.51302,184.44821   z "
     style="fill:#002050;fill-rule:evenodd;fill-opacity:1;stroke:none;" />
  <path
     id="path35"
     d="  M 167.81829,184.44821   L 167.81829,206.35494   L 176.93277,206.35494   L 176.93277,184.44821   L 167.81829,184.44821   z "
     style="fill:#002050;fill-rule:evenodd;fill-opacity:1;stroke:none;" />
  <path
     id="path37"
     d="  M 143.51302,239.45488   L 143.51302,261.5215   L 153.42701,261.5215   L 153.42701,239.45488   L 143.51302,239.45488   z "
     style="fill:#002050;fill-rule:evenodd;fill-opacity:1;stroke:none;" />
  <path
     id="path39"
     d="  M 167.81829,239.45488   L 167.81829,261.5215   L 176.93277,261.5215   L 176.93277,239.45488   L 167.81829,239.45488   z "
     style="fill:#002050;fill-rule:evenodd;fill-opacity:1;stroke:none;" />
  <path
     id="path41"
     d="  M 158.41399,16.390067   L 122.40581,77.473047   L 195.32162,77.473047   L 158.41399,16.390067   z "
     style="fill:#a6a6a6;fill-rule:evenodd;fill-opacity:1;stroke:none;" />
  <path
     id="path43"
     d="  M 146.71108,116.4894   L 146.71108,182.52938   L 148.47002,182.52938   L 148.47002,116.4894   L 146.71108,116.4894   z "
     style="fill:#40cdf5;fill-rule:evenodd;fill-opacity:1;stroke:none;" />
  <path
     id="path45"
     d="  M 170.21684,116.4894   L 170.21684,182.52938   L 171.97577,182.52938   L 171.97577,116.4894   L 170.21684,116.4894   z "
     style="fill:#40cdf5;fill-rule:evenodd;fill-opacity:1;stroke:none;" />
  <path
     id="path47"
     d="  M 128.64204,149.42944   L 128.64204,151.50818   L 186.36705,151.50818   L 186.36705,149.42944   L 128.64204,149.42944   z "
     style="fill:#40cdf5;fill-rule:evenodd;fill-opacity:1;stroke:none;" />
  <path
     id="path49"
     d="  M 200.75833,326.76196   C 199.21926,301.87704 183.6487,281.50939 166.53907,281.50939   C 147.89037,281.50939 133.87886,301.87704 132.31981,326.76196   L 200.75833,326.76196   z "
     style="fill:#0070c0;fill-rule:evenodd;fill-opacity:1;stroke:none;" />
  <path
     id="path51"
     d="  M 160.62265,326.76196   C 156.88492,304.81526 134.37856,288.70503 106.2556,288.70503   C 78.152635,288.70503 53.767414,304.81526 51.888552,326.76196   L 160.62265,326.76196   z "
     style="fill:#002050;fill-rule:evenodd;fill-opacity:1;stroke:none;" />
  <path
     id="path53"
     d="  M 234.97759,326.76196   C 233.43852,305.31496 217.86796,287.74561 200.75833,287.74561   C 182.10963,287.74561 168.09812,305.31496 166.53907,326.76196   L 234.97759,326.76196   z "
     style="fill:#a6a6a6;fill-rule:evenodd;fill-opacity:1;stroke:none;" />
  <path
     id="path55"
     d="  M 250.73804,42.83404   C 249.85857,42.83404 249.40884,42.83404 248.52938,42.83404   C 248.07965,30.051787 236.99637,19.907935 224.13416,19.907935   C 212.60115,19.907935 202.83707,27.403392 200.17868,37.986978   C 196.63083,34.459116 192.19352,32.700182 187.31647,32.700182   C 177.56239,32.700182 170.01696,39.745912 169.13749,49.010297   C 165.58964,49.45003 162.92126,50.769231 160.26287,52.977892   C 158.49394,50.329497 155.38583,48.560569 152.27771,48.560569   C 146.51121,48.560569 142.07389,52.977892 142.07389,58.704422   C 142.07389,64.430951 146.51121,68.83828 152.27771,68.83828   C 154.9361,68.83828 154.9361,68.83828 154.9361,68.83828   C 188.20594,68.83828 188.20594,68.83828 188.20594,68.83828   C 206.83465,68.83828 206.83465,68.83828 206.83465,68.83828   C 251.6275,68.83828 251.6275,68.83828 251.6275,68.83828   C 251.6275,68.83828 251.6275,68.83828 251.6275,68.83828   C 258.28346,68.398546 263.60024,62.672017 263.60024,55.616293   C 263.60024,48.560569 257.84373,42.83404 250.73804,42.83404   z "
     style="fill:#f2f2f2;fill-rule:evenodd;fill-opacity:1;stroke:none;" />
  <path
     id="path57"
     d="  M 110.06329,116.14961   C 109.62356,116.14961 109.17383,116.58934 108.7341,116.58934   C 109.62356,114.83041 110.06329,113.07147 110.06329,111.31254   C 110.06329,105.14627 105.17626,99.859479 98.520291,99.859479   C 92.743792,99.859479 87.866747,104.26681 87.41702,109.99334   C 85.198365,107.78468 82.090248,106.46548 78.532405,106.46548   C 72.765899,106.46548 67.439128,110.8728 67.439128,117.02907   C 66.099939,116.58934 64.770745,116.14961 63.441551,116.14961   C 57.225318,116.14961 51.888552,121.4364 51.888552,127.59267   C 51.888552,134.19867 57.225318,139.03574 63.441551,139.03574   C 110.06329,139.03574 110.06329,139.03574 110.06329,139.03574   C 116.27953,139.03574 121.6063,134.19867 121.6063,127.59267   C 121.6063,121.4364 116.27953,116.14961 110.06329,116.14961   z "
     style="fill:#f2f2f2;fill-rule:evenodd;fill-opacity:1;stroke:none;" />
  <path
     id="path59"
     d="  M 130.40097,23.535736   C 130.12114,23.535736 130.12114,23.535736 130.12114,23.535736   C 130.12114,16.639915 124.55451,11.113265 117.58873,11.113265   C 111.18262,11.113265 105.89582,16.080254 105.06632,22.156572   C 103.38734,20.217747 100.88886,18.838583 98.100545,18.838583   C 93.363416,18.838583 89.465778,22.706239 89.465778,27.673228   C 89.465778,32.360388 93.363416,36.21805 98.100545,36.21805   C 130.40097,36.21805 130.40097,36.21805 130.40097,36.21805   C 134.01878,36.21805 136.79709,33.459721 136.79709,29.88189   C 136.79709,26.563901 134.01878,23.535736 130.40097,23.535736   z "
     style="fill:#f2f2f2;fill-rule:evenodd;fill-opacity:1;stroke:none;" />
</svg>
